<?xml version="1.0" encoding="UTF-8" standalone="no"?>
<!-- Generator: Adobe Illustrator 19.0.0, SVG Export Plug-In . SVG Version: 6.00 Build 0)  -->

<svg
   xmlns:dc="http://purl.org/dc/elements/1.1/"
   xmlns:cc="http://creativecommons.org/ns#"
   xmlns:rdf="http://www.w3.org/1999/02/22-rdf-syntax-ns#"
   xmlns:svg="http://www.w3.org/2000/svg"
   xmlns="http://www.w3.org/2000/svg"
   xmlns:sodipodi="http://sodipodi.sourceforge.net/DTD/sodipodi-0.dtd"
   xmlns:inkscape="http://www.inkscape.org/namespaces/inkscape"
   version="1.1"
   id="Layer_1"
   x="0px"
   y="0px"
   viewBox="0 0 416.39999 46.400002"
   xml:space="preserve"
   inkscape:version="0.91 r13725"
   sodipodi:docname="logo.svg"
   width="416.39999"
   height="46.400002"><metadata
     id="metadata29"><rdf:RDF><cc:Work
         rdf:about=""><dc:format>image/svg+xml</dc:format><dc:type
           rdf:resource="http://purl.org/dc/dcmitype/StillImage" /><dc:title></dc:title></cc:Work></rdf:RDF></metadata><defs
     id="defs27" /><sodipodi:namedview
     pagecolor="#ffffff"
     bordercolor="#666666"
     borderopacity="1"
     objecttolerance="10"
     gridtolerance="10"
     guidetolerance="10"
     inkscape:pageopacity="0"
     inkscape:pageshadow="2"
     inkscape:window-width="1440"
     inkscape:window-height="855"
     id="namedview25"
     showgrid="false"
     fit-margin-top="0"
     fit-margin-left="0"
     fit-margin-right="0"
     fit-margin-bottom="0"
     inkscape:zoom="1.2916667"
     inkscape:cx="135.00737"
     inkscape:cy="41.569165"
     inkscape:window-x="0"
     inkscape:window-y="1"
     inkscape:window-maximized="1"
     inkscape:current-layer="XMLID_1_" /><style
     type="text/css"
     id="style3">
	.st0{fill:#EDEDED;}
	.st1{fill:#076C84;}
	.st2{fill:url(#XMLID_39_);}
</style><g
     id="XMLID_1_"
     transform="translate(-275.4,-224)"><path
       id="XMLID_2_"
       class="st0"
       d="m 359.2,229 21.1,0 0,6.1 -13.3,0 0,9.3 10.2,0 0,6.1 -10.2,0 0,14.1 -7.8,0 0,-35.6 z"
       inkscape:connector-curvature="0"
       style="fill:#ededed" /><path
       id="XMLID_4_"
       class="st0"
       d="m 382.8,229 12.2,0 c 2.8,0 5,0.2 6.4,0.7 1.4,0.5 2.7,1.4 3.6,3 1,1.5 1.5,3.4 1.5,5.7 0,4 -1.7,6.5 -5.1,7.6 4,1.4 6,4.3 6,8.7 0,2.3 -0.5,4.3 -1.6,5.8 -1.1,1.6 -2.4,2.6 -4,3.2 -1.6,0.5 -3.9,0.8 -6.8,0.8 l -12.1,0 0,-35.5 z m 7.5,14.4 2.5,0 c 2.5,0 4.1,-0.5 4.7,-1.4 0.7,-0.9 1,-1.9 1,-3.1 0,-1.1 -0.3,-2 -1,-2.9 -0.7,-0.8 -2,-1.3 -4.2,-1.3 l -3.1,0 0,8.7 z m 0,15.1 3.8,0 c 3.6,0 5.4,-1.5 5.4,-4.6 0,-1.7 -0.4,-2.9 -1.3,-3.6 -0.9,-0.7 -2.2,-1.1 -4,-1.1 l -3.8,0 0,9.3 z"
       inkscape:connector-curvature="0"
       style="fill:#ededed" /><path
       id="XMLID_8_"
       class="st0"
       d="m 419.1,229 7.9,0 10.1,35.5 -8,0 -1.8,-7.3 -10,0 -1.7,7.3 -7.2,0 10.7,-35.5 z m 6.7,22.1 -3.6,-14.6 -3.4,14.6 7,0 z"
       inkscape:connector-curvature="0"
       style="fill:#ededed" /><path
       id="XMLID_11_"
       class="st1"
       d="m 450,229 11.4,0 5,21.9 5.6,-21.9 11.1,0 0,35.5 -7.3,0 0,-29.7 -7.3,29.7 -5.5,0 -6.6,-29.7 0,29.7 -6.4,0 0,-35.5 z"
       inkscape:connector-curvature="0"
       style="fill:#076c84" /><path
       id="XMLID_18_"
       class="st1"
       d="m 489.9,229 7.8,0 0,20.3 c 0,2.9 0.1,4.9 0.4,6 0.3,1.1 0.8,2 1.6,2.6 0.8,0.6 1.8,0.9 3,0.9 1.3,0 2.3,-0.3 3.1,-1 0.8,-0.6 1.2,-1.5 1.4,-2.5 0.2,-1.1 0.3,-3 0.3,-5.9 l 0,-20.4 6.5,0 0,20 c 0,4 -0.2,7 -0.7,8.9 -0.5,2 -1.6,3.6 -3.5,5 -1.9,1.4 -4.5,2.1 -7.8,2.1 -3.1,0 -5.5,-0.5 -7.3,-1.5 -1.8,-1 -3,-2.5 -3.8,-4.3 -0.7,-1.9 -1.1,-5.2 -1.1,-9.9 l 0,-20.3 z"
       inkscape:connector-curvature="0"
       style="fill:#076c84" /><path
       id="XMLID_20_"
       class="st1"
       d="m 520.8,229 7.8,0 0,28.9 11.4,0 0,6.7 -19.3,0 0,-35.6 z"
       inkscape:connector-curvature="0"
       style="fill:#076c84" /><path
       id="XMLID_22_"
       class="st1"
       d="m 538.3,229 22.1,0 0,6.7 -7.3,0 0,28.9 -7.8,0 0,-28.9 -7.1,0 0,-6.7 z"
       inkscape:connector-curvature="0"
       style="fill:#076c84" /><path
       id="XMLID_24_"
       class="st1"
       d="m 563.2,229 7.8,0 0,35.5 -7.8,0 0,-35.5 z"
       inkscape:connector-curvature="0"
       style="fill:#076c84" /><path
       id="XMLID_27_"
       class="st1"
       d="m 576.3,248.2 10.6,0 0,5.8 -10.6,0 0,-5.8 z"
       inkscape:connector-curvature="0"
       style="fill:#076c84" /><path
       id="XMLID_29_"
       class="st1"
       d="m 587.4,229 22.1,0 0,6.7 -7.3,0 0,28.9 -7.8,0 0,-28.9 -7.1,0 0,-6.7 z"
       inkscape:connector-curvature="0"
       style="fill:#076c84" /><path
       id="XMLID_31_"
       class="st1"
       d="m 637.2,246.8 c 0,12.2 -4.3,18.3 -12.9,18.3 -4.3,0 -7.5,-1.6 -9.7,-4.7 -2.2,-3.1 -3.3,-7.7 -3.3,-13.6 0,-12.2 4.3,-18.3 12.9,-18.3 4.2,0 7.4,1.5 9.6,4.6 2.3,3 3.4,7.6 3.4,13.7 z m -8.2,0 c 0,-4.8 -0.4,-8 -1.1,-9.6 -0.7,-1.6 -1.9,-2.4 -3.6,-2.4 -1.6,0 -2.8,0.8 -3.5,2.4 -0.7,1.6 -1.1,4.8 -1.1,9.5 0,4.7 0.4,7.8 1.1,9.5 0.7,1.7 1.9,2.5 3.6,2.5 1.6,0 2.8,-0.8 3.6,-2.4 0.6,-1.5 1,-4.7 1,-9.5 z"
       inkscape:connector-curvature="0"
       style="fill:#076c84" /><path
       id="XMLID_34_"
       class="st1"
       d="m 667.2,246.8 c 0,12.2 -4.3,18.3 -12.9,18.3 -4.3,0 -7.5,-1.6 -9.7,-4.7 -2.2,-3.1 -3.3,-7.7 -3.3,-13.6 0,-12.2 4.3,-18.3 12.9,-18.3 4.2,0 7.4,1.5 9.6,4.6 2.3,3 3.4,7.6 3.4,13.7 z m -8.2,0 c 0,-4.8 -0.4,-8 -1.1,-9.6 -0.7,-1.6 -1.9,-2.4 -3.6,-2.4 -1.6,0 -2.8,0.8 -3.5,2.4 -0.7,1.6 -1.1,4.8 -1.1,9.5 0,4.7 0.4,7.8 1.1,9.5 0.7,1.7 1.9,2.5 3.6,2.5 1.6,0 2.8,-0.8 3.6,-2.4 0.6,-1.5 1,-4.7 1,-9.5 z"
       inkscape:connector-curvature="0"
       style="fill:#076c84" /><path
       id="XMLID_37_"
       class="st1"
       d="m 672.6,229 7.8,0 0,28.9 11.4,0 0,6.7 -19.3,0 0,-35.6 z"
       inkscape:connector-curvature="0"
       style="fill:#076c84" /></g><linearGradient
     id="XMLID_39_"
     gradientUnits="userSpaceOnUse"
     x1="347.24609"
     y1="247.2077"
     x2="275.91229"
     y2="247.2077"
     gradientTransform="translate(-275.4,-224)"><stop
       offset="0"
       style="stop-color:#00A79D"
       id="stop20" /><stop
       offset="1"
       style="stop-color:#262262"
       id="stop22" /></linearGradient><path
     id="XMLID_17_"
     class="st2"
     d="M 48.3,0 42,6.3 35.7,0 32.9,2.8 53.1,23.2 42,34.3 38.6,30.9 46.3,23.2 23.2,0 0,23.2 23.2,46.4 29.5,40.1 35.8,46.4 38.7,43.5 18.4,23.2 29.5,12.1 32.9,15.5 25.2,23.2 48.4,46.4 71.6,23.2 48.3,0 Z m -35.7,23.2 14,14 -3.4,3.4 L 5.8,23.2 23.2,5.8 l 3.4,3.4 -14,14 z m 18.3,0 4.8,-4.8 4.8,4.8 -4.8,4.8 -4.8,-4.8 z m 14,14 14,-14 -14,-14 3.4,-3.4 17.4,17.4 -17.4,17.4 -3.4,-3.4 z"
     inkscape:connector-curvature="0"
     style="fill:url(#XMLID_39_)" /></svg>