<?xml version="1.0" encoding="UTF-8" standalone="no"?>
<!-- Generator: Adobe Illustrator 19.0.0, SVG Export Plug-In . SVG Version: 6.00 Build 0)  -->

<svg
   xmlns:dc="http://purl.org/dc/elements/1.1/"
   xmlns:cc="http://creativecommons.org/ns#"
   xmlns:rdf="http://www.w3.org/1999/02/22-rdf-syntax-ns#"
   xmlns:svg="http://www.w3.org/2000/svg"
   xmlns="http://www.w3.org/2000/svg"
   xmlns:xlink="http://www.w3.org/1999/xlink"
   xmlns:sodipodi="http://sodipodi.sourceforge.net/DTD/sodipodi-0.dtd"
   xmlns:inkscape="http://www.inkscape.org/namespaces/inkscape"
   version="1.1"
   id="Layer_1"
   x="0px"
   y="0px"
   viewBox="0 0 20.700001 20.700001"
   xml:space="preserve"
   inkscape:version="0.91 r13725"
   sodipodi:docname="sales-data.svg"
   width="20.700001"
   height="20.700001"><metadata
     id="metadata170"><rdf:RDF><cc:Work
         rdf:about=""><dc:format>image/svg+xml</dc:format><dc:type
           rdf:resource="http://purl.org/dc/dcmitype/StillImage" /><dc:title /></cc:Work></rdf:RDF></metadata><defs
     id="defs168" /><sodipodi:namedview
     pagecolor="#ffffff"
     bordercolor="#666666"
     borderopacity="1"
     objecttolerance="10"
     gridtolerance="10"
     guidetolerance="10"
     inkscape:pageopacity="0"
     inkscape:pageshadow="2"
     inkscape:window-width="1440"
     inkscape:window-height="855"
     id="namedview166"
     showgrid="false"
     inkscape:zoom="3.653385"
     inkscape:cx="-70.820765"
     inkscape:cy="-35.598144"
     inkscape:window-x="0"
     inkscape:window-y="0"
     inkscape:window-maximized="0"
     inkscape:current-layer="Layer_1"
     fit-margin-left="0"
     fit-margin-top="0"
     fit-margin-right="0"
     fit-margin-bottom="0" /><style
     type="text/css"
     id="style3">
	.st0{fill:#06CDAA;stroke:#085143;stroke-miterlimit:10;}
	.st1{fill:none;stroke:#000000;stroke-miterlimit:10;}
	.st2{fill:#353535;}
	.st3{font-family:'BerlinSansFBDemi-Bold';}
	.st4{font-size:11.3478px;}
	.st5{fill:#FFFFFF;}
	.st6{fill:#085143;}
	.st7{font-family:'MyriadPro-Regular';}
	.st8{font-size:7.8334px;}
	.st9{font-family:'NexaBold';}
	.st10{font-size:21.1997px;}
	.st11{font-size:11.4284px;}
	.st12{font-size:11.4312px;}
	.st13{font-size:7.7069px;}
	.st14{font-size:12px;}
	.st15{fill-rule:evenodd;clip-rule:evenodd;}
	.st16{fill-rule:evenodd;clip-rule:evenodd;fill:#FFED00;}
	.st17{fill:#085143;stroke:#085143;stroke-width:0.25;stroke-miterlimit:10;}
	.st18{font-size:14.855px;}
	.st19{fill:none;stroke:#085143;stroke-miterlimit:10;}
	.st20{fill:#F2F4F4;}
	.st21{font-size:6.9402px;}
	.st22{font-size:6.8282px;}
	.st23{stroke:#000000;stroke-width:2;stroke-miterlimit:10;}
	.st24{font-size:10px;}
	.st25{fill:#F2F4F4;stroke:#111111;stroke-miterlimit:10;}
	.st26{font-size:11px;}
	.st27{font-size:9px;}
	.st28{fill:#F4F4F4;}
	.st29{font-size:8.9578px;}
	.st30{clip-path:url(#XMLID_165_);fill:#353535;}
	.st31{clip-path:url(#XMLID_169_);fill:#353535;}
</style><g
     id="XMLID_43_"
     transform="translate(-780.6,-213.4)"
     style="fill:#ffffff"><path
       id="XMLID_140_"
       class="st2"
       d="m 796.7,230.1 -11.7,0 c -0.5,0 -0.9,0.4 -0.9,0.9 0,0.5 0.4,0.9 0.9,0.9 l 11.7,0 c 0.5,0 0.9,-0.4 0.9,-0.9 0.1,-0.5 -0.3,-0.9 -0.9,-0.9 l 0,0 z m 0,0"
       inkscape:connector-curvature="0"
       style="fill:#ffffff" /><path
       id="XMLID_137_"
       class="st2"
       d="m 783.8,223 0,2.3 c 0,0.4 0.3,0.7 0.7,0.7 0.4,0 0.7,-0.3 0.7,-0.7 l 0,-2.3 c 0,-0.4 -0.3,-0.7 -0.7,-0.7 -0.3,0 -0.7,0.3 -0.7,0.7 l 0,0 z m 0,0"
       inkscape:connector-curvature="0"
       style="fill:#ffffff" /><path
       id="XMLID_134_"
       class="st2"
       d="m 786.2,222.1 0,3.3 c 0,0.4 0.3,0.7 0.7,0.7 0.4,0 0.7,-0.3 0.7,-0.7 l 0,-3.3 c 0,-0.4 -0.3,-0.7 -0.7,-0.7 -0.4,0 -0.7,0.3 -0.7,0.7 l 0,0 z m 0,0"
       inkscape:connector-curvature="0"
       style="fill:#ffffff" /><g
       id="XMLID_123_"
       style="fill:#ffffff"><defs
         id="defs138"><rect
           id="XMLID_124_"
           x="780.59998"
           y="215.60001"
           width="20.799999"
           height="16.4" /></defs><clipPath
         id="XMLID_165_"><use
           xlink:href="#XMLID_124_"
           style="overflow:visible"
           id="use142"
           x="0"
           y="0"
           width="100%"
           height="100%" /></clipPath><path
         id="XMLID_131_"
         class="st30"
         d="m 788.5,221.2 0,4.2 c 0,0.4 0.3,0.7 0.7,0.7 0.4,0 0.7,-0.3 0.7,-0.7 l 0,-4.2 c 0,-0.4 -0.3,-0.7 -0.7,-0.7 -0.3,0 -0.7,0.3 -0.7,0.7 l 0,0 z m 0,0"
         clip-path="url(#XMLID_165_)"
         inkscape:connector-curvature="0"
         style="fill:#ffffff" /><path
         id="XMLID_128_"
         class="st30"
         d="m 800.3,215.5 -18.8,0 c -0.5,0 -0.9,0.4 -0.9,0.9 l 0,11.7 c 0,0.5 0.4,0.9 0.9,0.9 l 17.9,0 c 0,0 -0.1,0 -0.1,-0.1 l -1.3,-1.3 c -0.7,0.4 -1.6,0.7 -2.5,0.7 -1.2,0 -2.3,-0.4 -3.2,-1.2 l -9.9,0 0,-9.9 16.9,0 0,2.6 c 0.8,0.9 1.3,2.1 1.3,3.3 0,0.9 -0.2,1.7 -0.6,2.5 l 1.3,1.3 0,-10.6 c -0.1,-0.4 -0.5,-0.8 -1,-0.8 l 0,0 z m 0,0"
         clip-path="url(#XMLID_165_)"
         inkscape:connector-curvature="0"
         style="fill:#ffffff" /></g><path
       id="XMLID_44_"
       class="st2"
       d="m 799.2,226.4 c -0.1,-0.1 -0.2,-0.1 -0.3,-0.1 l -0.2,-0.2 c 0.7,-0.7 1,-1.7 1,-2.7 0,-1.1 -0.4,-2.1 -1.2,-2.9 -0.8,-0.8 -1.8,-1.2 -2.9,-1.2 -1.1,0 -2.1,0.4 -2.9,1.2 -0.8,0.8 -1.2,1.8 -1.2,2.9 0,1.1 0.4,2.1 1.2,2.9 0.8,0.8 1.8,1.2 2.9,1.2 1,0 2,-0.4 2.7,-1 l 0.2,0.2 c 0,0.1 0,0.2 0.1,0.3 l 1.4,1.4 c 0.1,0.1 0.2,0.1 0.3,0.1 0.1,0 0.2,0 0.3,-0.1 0.2,-0.2 0.2,-0.4 0,-0.6 l -1.4,-1.4 z m -1.3,-0.7 c -0.6,0.6 -1.4,1 -2.3,1 -0.9,0 -1.7,-0.3 -2.3,-1 -0.6,-0.6 -1,-1.4 -1,-2.3 0,-0.9 0.3,-1.7 1,-2.3 0.6,-0.6 1.4,-1 2.3,-1 0.9,0 1.7,0.3 2.3,1 0.6,0.6 1,1.4 1,2.3 -0.1,0.8 -0.4,1.7 -1,2.3 l 0,0 z m 0,0"
       inkscape:connector-curvature="0"
       style="fill:#ffffff" /></g></svg>